P3
64
64
255
255
255
255
255
255
255
255
255
255
255
255
255
255
255
255
255
255
255
255
255
255
255
255
255
255
255
255
255
255
255
255
255
255
255
255
255
255
255
255
255
255
255
255
255
255
255
255
255
255
255
255
255
255
255
253
253
253
254
254
254
255
255
255
255
255
255
255
255
255
244
246
249
226
236
247
200
218
236
184
207
231
166
196
225
156
189
222
142
180
217
139
178
216
139
178
216
142
180
217
154
188
221
165
195
225
183
207
231
203
220
237
230
239
248
246
248
250
255
255
255
255
255
255
255
255
255
253
253
253
254
254
254
255
255
255
255
255
255
255
255
255
255
255
255
255
255
255
255
255
255
255
255
255
255
255
255
255
255
255
255
255
255
255
255
255
255
255
255
255
255
255
255
255
255
255
255
255
255
255
255
255
255
255
255
255
255
255
255
255
255
255
255
255
255
255
255
255
255
255
255
255
255
255
255
255
255
255
255
255
255
255
255
255
255
255
255
255
255
255
255
255
255
255
255
255
255
255
255
255
255
255
255
255
255
255
255
255
255
255
255
254
254
254
254
254
254
255
255
255
255
255
255
242
246
250
210
225
240
175
205
235
140
181
221
119
164
209
109
158
206
102
153
204
102
153
204
102
153
204
102
153
204
102
153
204
102
153
204
102
153
204
102
153
204
102
153
204
102
153
204
110
158
207
120
165
210
145
183
223
182
209
235
216
229
241
247
249
250
255
255
255
255
255
255
253
253
253
254
254
254
255
255
255
255
255
255
255
255
255
255
255
255
255
255
255
255
255
255
255
255
255
255
255
255
255
255
255
255
255
255
255
255
255
255
255
255
255
255
255
255
255
255
255
255
255
255
255
255
255
255
255
255
255
255
255
255
255
255
255
255
255
255
255
255
255
255
255
255
255
255
255
255
255
255
255
255
255
255
255
255
255
255
255
255
255
255
255
255
255
255
255
255
255
255
255
255
255
255
255
254
254
254
255
255
255
255
255
255
236
242
247
189
214
239
137
177
219
107
156
206
100
150
200
101
152
203
102
153
204
102
153
204
102
153
204
103
153
204
103
153
204
103
153
204
103
153
204
103
153
204
103
153
204
103
153
204
103
153
204
102
153
204
102
153
204
102
153
204
101
152
202
101
151
202
112
161
209
148
187
226
197
219
241
242
246
250
255
255
255
255
255
255
253
253
253
255
255
255
255
255
255
255
255
255
255
255
255
255
255
255
255
255
255
255
255
255
255
255
255
255
255
255
255
255
255
255
255
255
255
255
255
255
255
255
255
255
255
255
255
255
255
255
255
255
255
255
255
255
255
255
255
255
255
255
255
255
255
255
255
255
255
255
255
255
255
255
255
255
255
255
255
255
255
255
255
255
255
255
255
255
255
255
255
255
255
255
255
255
253
253
253
255
255
255
249
250
252
199
221
243
132
174
215
100
150
200
101
152
203
101
152
203
103
152
203
104
153
204
104
154
205
103
154
204
103
154
204
103
154
204
103
153
204
102
153
204
102
153
204
102
153
204
102
153
204
102
153
204
102
153
204
102
153
204
103
153
204
103
153
204
103
154
204
103
154
204
102
153
204
101
151
202
101
150
200
139
179
218
206
225
244
250
251
252
255
255
255
253
253
253
255
255
255
255
255
255
255
255
255
255
255
255
255
255
255
255
255
255
255
255
255
255
255
255
255
255
255
255
255
255
255
255
255
255
255
255
255
255
255
255
255
255
255
255
255
255
255
255
255
255
255
255
255
255
255
255
255
255
255
255
255
255
255
255
255
255
255
255
255
255
255
255
255
255
255
255
255
255
255
255
255
255
255
255
255
255
255
254
254
254
255
255
255
234
241
249
159
193
229
98
147
196
100
150
200
100
150
200
102
153
204
104
155
207
106
156
208
103
155
207
100
150
201
100
150
200
101
151
202
102
153
204
102
153
204
103
154
204
103
153
204
102
153
204
102
153
204
102
153
204
102
153
204
102
153
204
102
153
204
102
153
204
102
153
204
102
153
204
103
153
204
103
154
204
102
153
204
102
152
203
104
152
201
164
197
231
233
240
247
255
255
255
253
253
253
254
254
254
255
255
255
255
255
255
255
255
255
255
255
255
255
255
255
255
255
255
255
255
255
255
255
255
255
255
255
255
255
255
255
255
255
255
255
255
255
255
255
255
255
255
255
255
255
255
255
255
255
255
255
255
255
255
255
255
255
255
255
255
255
255
255
255
255
255
255
255
255
255
255
255
255
255
255
255
255
255
255
255
255
254
254
254
214
228
242
131
172
213
111
158
205
140
182
223
167
200
234
187
214
240
194
215
236
199
216
233
202
218
235
193
212
231
190
214
239
171
203
236
145
185
225
119
166
211
101
151
202
101
152
202
102
153
204
103
153
204
102
153
204
102
153
204
102
153
204
102
153
204
102
153
204
102
153
204
102
153
204
102
153
204
102
153
204
102
153
204
102
153
204
103
154
204
102
153
204
100
151
201
130
171
213
215
231
247
255
255
255
254
254
254
255
255
255
255
255
255
255
255
255
255
255
255
255
255
255
255
255
255
255
255
255
255
255
255
255
255
255
255
255
255
255
255
255
255
255
255
255
255
255
255
255
255
255
255
255
255
255
255
255
255
255
255
255
255
255
255
255
255
255
255
255
255
255
255
255
255
255
255
255
255
255
255
255
255
255
254
254
254
255
255
255
243
245
246
181
215
247
182
208
233
224
234
245
245
247
249
253
254
254
255
255
255
255
255
255
255
255
255
255
255
255
255
255
255
255
255
255
253
254
254
245
247
249
226
235
245
191
214
237
141
181
221
101
152
203
102
153
204
102
153
204
102
153
204
102
153
204
102
153
204
102
153
204
102
153
204
102
153
204
102
153
204
102
153
204
102
153
204
102
153
204
102
153
204
103
153
204
103
154
204
102
153
203
113
158
203
200
221
242
254
254
255
254
254
254
254
254
254
255
255
255
255
255
255
255
255
255
255
255
255
255
255
255
255
255
255
255
255
255
255
255
255
255
255
255
255
255
255
255
255
255
255
255
255
255
255
255
255
255
255
255
255
255
255
255
255
255
255
255
255
255
255
255
255
255
255
255
255
255
255
255
255
255
255
255
255
255
255
255
255
255
255
255
251
252
252
246
247
248
255
255
255
255
255
255
255
255
255
253
253
253
251
251
251
252
252
252
253
253
253
255
255
255
255
255
255
255
255
255
255
255
255
255
255
255
255
255
255
255
255
255
252
253
254
199
219
239
125
168
210
102
153
204
103
153
204
102
153
204
102
153
204
102
153
204
102
153
204
102
153
204
102
153
204
102
153
204
102
153
204
102
153
204
102
153
204
102
153
204
102
153
204
103
154
204
102
153
204
107
154
201
195
218
241
255
255
255
254
254
254
254
254
254
255
255
255
255
255
255
255
255
255
255
255
255
255
255
255
255
255
255
255
255
255
255
255
255
255
255
255
255
255
255
255
255
255
255
255
255
255
255
255
255
255
255
255
255
255
255
255
255
255
255
255
255
255
255
255
255
255
255
255
255
255
255
255
255
255
255
255
255
255
255
255
255
254
254
254
255
255
255
253
253
253
255
255
255
255
255
255
255
255
255
255
255
255
255
255
255
253
254
254
249
250
251
238
244
249
224
234
243
211
225
239
205
220
236
196
213
231
186
204
223
192
210
229
197
217
236
151
185
220
103
153
204
103
153
204
103
153
204
103
153
204
103
154
204
103
154
204
103
154
204
103
154
204
103
153
204
103
153
204
102
153
204
102
153
204
102
153
204
102
153
204
102
153
204
103
154
204
102
153
204
109
155
202
206
225
244
255
255
255
254
254
254
255
255
255
255
255
255
255
255
255
255
255
255
255
255
255
255
255
255
255
255
255
255
255
255
255
255
255
255
255
255
255
255
255
255
255
255
255
255
255
255
255
255
255
255
255
255
255
255
255
255
255
255
255
255
255
255
255
255
255
255
255
255
255
254
254
254
253
253
253
254
254
254
255
255
255
255
255
255
255
255
255
249
250
252
231
239
247
212
225
238
197
219
241
176
206
236
157
194
232
134
178
222
120
165
211
113
162
210
107
157
208
105
157
207
104
156
208
105
158
211
104
156
208
102
153
203
102
153
204
102
153
204
102
153
204
102
153
204
102
153
204
102
153
204
102
153
204
102
153
204
102
153
204
102
153
204
102
153
204
103
153
204
103
153
204
103
154
204
103
154
204
103
153
204
102
153
204
103
154
204
102
153
204
120
163
208
222
234
246
255
255
255
254
254
254
255
255
255
255
255
255
255
255
255
255
255
255
255
255
255
255
255
255
255
255
255
255
255
255
255
255
255
255
255
255
255
255
255
255
255
255
255
255
255
255
255
255
255
255
255
255
255
255
255
255
255
255
255
255
255
255
255
253
253
253
255
255
255
255
255
255
255
255
255
238
243
248
210
225
241
178
208
238
140
181
222
119
164
211
106
156
208
100
150
201
102
152
201
114
159
205
126
168
211
137
176
216
149
184
219
161
192
223
175
201
228
181
205
230
188
210
232
200
218
237
200
219
237
200
218
237
199
218
236
189
211
233
181
205
230
176
203
229
164
194
225
154
187
221
140
179
217
130
172
213
119
164
210
106
155
205
102
153
204
102
153
204
102
153
204
102
153
204
102
153
204
103
154
204
103
154
204
104
154
205
102
152
203
137
177
216
239
245
250
255
255
255
254
254
254
255
255
255
255
255
255
255
255
255
255
255
255
255
255
255
255
255
255
255
255
255
255
255
255
255
255
255
255
255
255
255
255
255
255
255
255
255
255
255
255
255
255
255
255
255
255
255
255
255
255
255
255
255
255
255
255
255
252
252
253
219
232
245
171
203
235
128
171
215
102
153
204
102
152
201
121
164
209
147
183
219
178
203
229
204
221
238
222
233
244
235
241
248
247
250
252
255
255
255
255
255
255
255
255
255
255
255
255
253
253
254
254
254
255
253
254
254
247
249
252
247
250
252
253
254
254
254
254
255
252
253
254
255
255
255
255
255
255
255
255
255
255
255
255
244
247
251
232
239
247
217
229
242
197
216
236
171
199
227
144
181
218
122
167
211
105
155
205
102
153
204
102
153
204
102
153
204
104
155
205
100
150
200
174
204
234
254
254
254
254
254
254
254
254
254
255
255
255
255
255
255
255
255
255
255
255
255
255
255
255
255
255
255
255
255
255
255
255
255
255
255
255
255
255
255
255
255
255
255
255
255
255
255
255
255
255
255
255
255
255
254
254
254
254
254
254
220
233
246
156
192
228
105
153
203
102
151
201
135
174
214
181
206
230
217
230
242
247
249
252
255
255
255
250
251
253
244
247
251
232
240
247
212
226
241
191
212
233
176
202
228
166
196
225
161
192
224
152
187
221
148
183
219
149
184
220
143
180
218
127
168
209
128
169
211
142
180
217
149
184
220
148
183
219
155
188
222
163
194
224
174
201
228
187
209
232
202
219
237
221
232
244
238
243
249
246
249
252
253
254
254
255
255
255
237
243
249
210
225
240
176
202
229
135
175
215
109
157
206
102
153
204
102
153
204
113
159
205
218
231
245
255
255
255
253
253
253
255
255
255
255
255
255
255
255
255
255
255
255
255
255
255
255
255
255
255
255
255
255
255
255
255
255
255
255
255
255
255
255
255
255
255
255
255
255
255
255
255
255
254
254
254
255
255
255
210
229
247
107
154
201
107
155
203
163
193
224
219
231
243
251
252
254
248
251
253
229
237
246
191
213
234
164
194
225
145
182
218
126
169
212
110
158
207
108
156
204
133
177
221
142
183
223
106
154
201
101
151
201
100
150
201
100
150
200
100
150
200
119
163
207
171
203
235
169
199
231
121
164
206
100
150
200
100
150
200
100
150
200
100
151
201
100
151
201
101
152
202
102
153
204
107
157
206
116
163
209
133
174
214
154
187
221
176
203
229
206
222
239
236
242
249
250
251
253
249
251
253
218
230
243
169
198
226
125
168
212
101
150
201
152
190
227
249
251
252
255
255
255
254
254
254
255
255
255
255
255
255
255
255
255
255
255
255
255
255
255
255
255
255
255
255
255
255
255
255
255
255
255
255
255
255
255
255
255
255
255
255
254
254
254
255
255
255
249
250
251
151
190
228
130
171
212
219
231
243
252
253
254
223
233
244
179
204
230
137
176
216
112
159
207
128
170
212
127
169
212
100
150
200
101
152
202
101
152
202
137
180
223
225
231
237
246
248
250
189
216
243
148
187
226
164
198
232
167
201
234
165
200
234
209
226
243
255
255
255
255
255
255
215
231
247
177
206
236
178
207
237
168
201
235
162
196
231
150
189
228
130
174
218
109
158
206
102
153
204
102
153
204
102
153
204
102
153
204
102
153
204
105
155
205
116
162
209
142
180
217
180
205
230
221
233
244
251
252
254
237
243
249
174
201
229
119
163
208
211
227
242
255
255
255
253
253
253
255
255
255
255
255
255
255
255
255
255
255
255
255
255
255
255
255
255
255
255
255
255
255
255
255
255
255
255
255
255
255
255
255
255
255
255
254
254
254
255
255
255
242
244
246
193
220
247
235
241
247
248
251
253
164
194
225
113
160
208
102
153
204
102
153
204
113
161
210
221
233
246
233
240
248
171
204
236
181
208
234
201
218
235
232
241
250
255
255
255
255
255
255
255
255
255
251
252
252
253
253
253
254
254
254
255
255
255
255
255
255
254
254
254
254
254
254
255
255
255
255
255
255
255
255
255
255
255
255
255
255
255
253
253
253
244
246
249
230
239
248
200
218
236
167
196
226
127
169
211
101
150
201
102
153
203
102
153
204
102
153
204
102
153
204
102
153
204
110
159
207
149
185
220
228
237
246
255
255
255
203
220
237
217
234
250
255
255
255
254
254
254
255
255
255
255
255
255
255
255
255
255
255
255
255
255
255
255
255
255
255
255
255
255
255
255
255
255
255
255
255
255
255
255
255
255
255
255
255
255
255
255
255
255
254
254
254
254
254
254
255
255
255
229
237
246
128
171
214
176
202
228
172
200
227
168
197
226
209
224
239
250
250
251
255
255
255
255
255
255
255
255
255
233
241
249
213
227
241
213
227
241
212
225
237
209
220
232
226
235
243
254
254
254
255
255
255
255
255
255
254
254
254
255
255
255
255
255
255
254
254
254
253
253
253
253
253
253
255
255
255
237
241
246
210
222
234
214
226
238
219
231
243
218
231
243
218
230
242
228
237
246
194
217
240
135
176
216
102
153
203
102
153
204
103
154
204
103
154
204
102
153
204
100
150
200
195
218
241
254
254
254
255
255
255
254
254
254
255
255
255
255
255
255
255
255
255
255
255
255
255
255
255
255
255
255
255
255
255
255
255
255
255
255
255
255
255
255
255
255
255
255
255
255
255
255
255
255
255
255
255
255
255
255
255
255
255
255
255
254
254
254
254
254
254
252
253
253
212
227
243
244
247
251
255
255
255
255
255
255
255
255
255
255
255
255
254
254
254
254
254
254
253
253
253
176
208
239
114
159
204
115
162
209
112
162
212
107
158
208
166
203
239
253
253
253
254
254
254
254
254
254
255
255
255
255
255
255
255
255
255
255
255
255
255
255
255
253
253
253
255
255
255
201
218
236
124
171
219
117
164
210
109
158
205
107
155
205
135
175
217
240
245
249
255
255
255
239
244
249
173
201
229
111
158
206
103
153
204
103
154
204
103
152
203
132
175
217
235
241
246
255
255
255
252
252
252
255
255
255
255
255
255
255
255
255
255
255
255
255
255
255
255
255
255
255
255
255
255
255
255
255
255
255
255
255
255
255
255
255
255
255
255
255
255
255
255
255
255
255
255
255
255
255
255
255
255
255
255
255
255
255
255
255
255
255
255
255
255
255
227
238
249
197
215
234
202
219
237
203
220
237
200
219
238
219
233
248
253
253
254
254
254
254
255
255
255
233
240
248
166
195
225
107
155
205
102
152
203
109
156
205
206
223
239
255
255
255
254
254
254
255
255
255
255
255
255
255
255
255
255
255
255
255
255
255
255
255
255
255
255
255
255
255
255
242
246
250
187
210
234
116
161
207
102
153
204
100
150
200
179
208
236
253
254
254
251
251
251
255
255
255
224
236
247
118
162
206
102
153
204
104
154
205
100
150
201
150
189
228
245
246
248
255
255
255
254
254
254
255
255
255
255
255
255
255
255
255
255
255
255
255
255
255
255
255
255
255
255
255
255
255
255
255
255
255
255
255
255
255
255
255
255
255
255
255
255
255
255
255
255
255
255
255
255
255
255
255
255
255
255
255
255
255
255
255
254
254
254
255
255
255
186
213
240
118
162
206
109
157
206
104
154
205
101
150
201
157
190
223
251
252
254
254
254
254
255
255
255
244
245
247
146
188
229
100
150
200
103
152
203
115
162
212
221
231
241
255
255
255
253
253
253
255
255
255
255
255
255
255
255
255
255
255
255
255
255
255
255
255
255
255
255
255
255
255
255
255
255
255
176
206
236
101
150
200
104
154
204
105
155
207
191
211
231
255
255
255
251
251
251
254
254
254
207
227
246
129
169
209
112
160
207
103
153
204
101
150
201
144
186
226
239
243
246
255
255
255
254
254
254
255
255
255
255
255
255
255
255
255
255
255
255
255
255
255
255
255
255
255
255
255
255
255
255
255
255
255
255
255
255
255
255
255
255
255
255
255
255
255
255
255
255
255
255
255
255
255
255
255
255
255
255
255
255
255
255
255
254
254
254
255
255
255
242
246
251
173
200
227
109
156
205
102
152
203
107
156
206
213
228
242
255
255
255
252
252
252
255
255
255
237
239
241
138
183
228
100
150
200
102
152
203
114
162
210
218
229
241
255
255
255
253
253
253
255
255
255
255
255
255
255
255
255
255
255
255
255
255
255
255
255
255
254
254
254
255
255
255
253
254
254
167
201
234
100
150
200
104
153
204
104
155
207
187
208
229
255
255
255
252
252
252
255
255
255
251
252
253
199
219
240
117
162
208
102
152
203
102
152
203
185
209
233
255
255
255
254
254
254
255
255
255
255
255
255
255
255
255
255
255
255
255
255
255
255
255
255
255
255
255
255
255
255
255
255
255
255
255
255
255
255
255
255
255
255
255
255
255
255
255
255
255
255
255
255
255
255
255
255
255
255
255
255
255
255
255
255
255
255
254
254
254
255
255
255
243
246
250
138
178
219
102
152
203
103
152
203
111
160
210
225
234
243
255
255
255
252
252
252
255
255
255
238
240
242
140
184
228
100
150
200
102
152
203
114
162
210
218
230
241
255
255
255
253
253
253
255
255
255
255
255
255
255
255
255
255
255
255
255
255
255
255
255
255
254
254
254
255
255
255
254
254
254
169
202
235
100
150
200
104
153
204
104
155
207
188
208
229
255
255
255
252
252
252
254
254
254
255
255
255
169
202
235
100
150
200
103
153
203
104
155
208
185
206
226
255
255
255
253
253
253
255
255
255
255
255
255
255
255
255
255
255
255
255
255
255
255
255
255
255
255
255
255
255
255
255
255
255
255
255
255
255
255
255
255
255
255
255
255
255
255
255
255
255
255
255
255
255
255
255
255
255
255
255
255
255
255
255
255
255
255
254
254
254
255
255
255
239
244
249
135
175
217
102
152
203
102
152
203
111
159
209
223
233
242
255
255
255
252
252
252
255
255
255
238
240
242
140
184
228
100
150
200
102
152
203
114
162
210
218
230
241
255
255
255
253
253
253
255
255
255
255
255
255
255
255
255
255
255
255
255
255
255
255
255
255
254
254
254
255
255
255
254
254
254
169
202
235
100
150
200
104
153
204
104
155
207
188
208
229
255
255
255
252
252
252
254
254
254
255
255
255
169
202
235
101
150
200
103
153
203
104
155
207
185
206
228
255
255
255
253
253
253
255
255
255
255
255
255
255
255
255
255
255
255
255
255
255
255
255
255
255
255
255
255
255
255
255
255
255
255
255
255
255
255
255
255
255
255
255
255
255
255
255
255
255
255
255
255
255
255
255
255
255
255
255
255
255
255
255
255
255
255
254
254
254
255
255
255
240
244
249
135
176
217
102
152
203
102
152
203
111
159
209
223
233
243
255
255
255
252
252
252
255
255
255
238
240
242
140
184
228
100
150
200
102
152
203
114
162
210
218
230
241
255
255
255
253
253
253
255
255
255
255
255
255
255
255
255
255
255
255
255
255
255
255
255
255
254
254
254
255
255
255
254
254
254
169
202
235
100
150
200
104
153
204
104
155
207
188
208
229
255
255
255
252
252
252
254
254
254
255
255
255
169
202
235
100
150
200
103
153
203
104
155
207
185
206
228
255
255
255
253
253
253
255
255
255
255
255
255
255
255
255
255
255
255
255
255
255
255
255
255
255
255
255
255
255
255
255
255
255
255
255
255
255
255
255
255
255
255
255
255
255
255
255
255
255
255
255
255
255
255
255
255
255
255
255
255
255
255
255
255
255
255
254
254
254
255
255
255
240
244
249
135
176
217
102
152
203
102
152
203
111
159
209
223
233
243
255
255
255
252
252
252
255
255
255
238
240
242
140
184
228
100
150
200
102
152
203
114
162
210
218
230
241
255
255
255
253
253
253
255
255
255
255
255
255
255
255
255
255
255
255
255
255
255
255
255
255
254
254
254
255
255
255
254
254
254
169
202
235
100
150
200
104
153
204
104
155
207
188
208
229
255
255
255
252
252
252
254
254
254
255
255
255
169
202
235
100
150
200
103
153
203
104
155
207
185
206
228
255
255
255
253
253
253
255
255
255
255
255
255
255
255
255
255
255
255
255
255
255
255
255
255
255
255
255
255
255
255
255
255
255
255
255
255
255
255
255
255
255
255
255
255
255
255
255
255
255
255
255
255
255
255
255
255
255
255
255
255
255
255
255
255
255
255
254
254
254
255
255
255
240
244
249
135
176
217
102
152
203
102
152
203
111
159
209
223
233
243
255
255
255
252
252
252
255
255
255
238
240
242
140
184
228
100
150
200
102
152
203
114
162
210
218
230
241
255
255
255
253
253
253
255
255
255
255
255
255
255
255
255
255
255
255
255
255
255
255
255
255
254
254
254
255
255
255
254
254
254
169
202
235
100
150
200
104
153
204
104
155
207
188
208
229
255
255
255
252
252
252
254
254
254
255
255
255
169
202
235
100
150
200
103
153
203
104
155
207
185
206
228
255
255
255
253
253
253
255
255
255
255
255
255
255
255
255
255
255
255
255
255
255
255
255
255
255
255
255
255
255
255
255
255
255
255
255
255
255
255
255
255
255
255
255
255
255
255
255
255
255
255
255
255
255
255
255
255
255
255
255
255
255
255
255
255
255
255
254
254
254
255
255
255
240
244
249
135
176
217
102
152
203
102
152
203
111
159
209
223
233
243
255
255
255
252
252
252
255
255
255
238
240
242
140
184
228
100
150
200
102
152
203
114
162
210
218
230
241
255
255
255
253
253
253
255
255
255
255
255
255
255
255
255
255
255
255
255
255
255
255
255
255
254
254
254
255
255
255
254
254
254
169
202
235
100
150
200
104
153
204
104
155
207
188
208
229
255
255
255
252
252
252
254
254
254
255
255
255
169
202
235
100
150
200
103
153
203
104
155
207
185
206
228
255
255
255
253
253
253
255
255
255
255
255
255
255
255
255
255
255
255
255
255
255
255
255
255
255
255
255
255
255
255
255
255
255
255
255
255
255
255
255
255
255
255
255
255
255
255
255
255
255
255
255
255
255
255
255
255
255
255
255
255
255
255
255
255
255
255
254
254
254
255
255
255
240
244
249
135
176
217
102
152
203
102
152
203
111
159
209
223
233
243
255
255
255
252
252
252
255
255
255
238
240
242
140
184
228
100
150
200
102
152
203
114
162
210
218
230
241
255
255
255
253
253
253
255
255
255
255
255
255
255
255
255
255
255
255
255
255
255
255
255
255
254
254
254
255
255
255
254
254
254
169
202
235
100
150
200
104
153
204
104
155
207
188
208
229
255
255
255
252
252
252
254
254
254
255
255
255
169
202
235
100
150
200
103
153
203
104
155
207
185
206
228
255
255
255
253
253
253
255
255
255
255
255
255
255
255
255
255
255
255
255
255
255
255
255
255
255
255
255
255
255
255
255
255
255
255
255
255
255
255
255
255
255
255
255
255
255
255
255
255
255
255
255
255
255
255
255
255
255
255
255
255
255
255
255
255
255
255
254
254
254
255
255
255
240
244
249
135
176
217
102
152
203
102
152
203
111
159
209
223
233
243
255
255
255
252
252
252
255
255
255
238
240
242
140
184
228
100
150
200
102
152
203
114
162
210
218
230
241
255
255
255
253
253
253
255
255
255
255
255
255
255
255
255
255
255
255
255
255
255
255
255
255
254
254
254
255
255
255
254
254
254
169
202
235
100
150
200
104
153
204
104
155
207
188
208
229
255
255
255
252
252
252
254
254
254
255
255
255
169
202
235
100
150
200
103
153
203
104
155
207
185
206
228
255
255
255
253
253
253
255
255
255
255
255
255
255
255
255
255
255
255
255
255
255
255
255
255
255
255
255
255
255
255
255
255
255
255
255
255
255
255
255
255
255
255
255
255
255
255
255
255
255
255
255
255
255
255
255
255
255
255
255
255
255
255
255
255
255
255
254
254
254
255
255
255
240
244
249
135
176
217
102
152
203
102
152
203
111
159
209
223
233
243
255
255
255
252
252
252
255
255
255
238
240
242
140
184
228
100
150
200
102
152
203
114
162
210
218
230
241
255
255
255
253
253
253
255
255
255
255
255
255
255
255
255
255
255
255
255
255
255
255
255
255
254
254
254
255
255
255
254
254
254
169
202
235
100
150
200
104
153
204
104
155
207
188
208
229
255
255
255
252
252
252
254
254
254
255
255
255
169
202
235
100
150
200
103
153
203
104
155
207
185
206
228
255
255
255
253
253
253
255
255
255
255
255
255
255
255
255
255
255
255
255
255
255
255
255
255
255
255
255
255
255
255
255
255
255
255
255
255
255
255
255
255
255
255
255
255
255
255
255
255
255
255
255
255
255
255
255
255
255
255
255
255
255
255
255
255
255
255
254
254
254
255
255
255
240
244
249
135
176
217
102
152
203
102
152
203
111
159
209
223
233
243
255
255
255
252
252
252
255
255
255
238
240
242
140
184
228
100
150
200
102
152
203
114
162
210
218
230
241
255
255
255
253
253
253
255
255
255
255
255
255
255
255
255
255
255
255
255
255
255
255
255
255
254
254
254
255
255
255
254
254
254
169
202
235
100
150
200
104
153
204
104
155
207
188
208
229
255
255
255
252
252
252
254
254
254
255
255
255
169
202
235
100
150
200
103
153
203
104
155
207
185
206
228
255
255
255
253
253
253
255
255
255
255
255
255
255
255
255
255
255
255
255
255
255
255
255
255
255
255
255
255
255
255
255
255
255
255
255
255
255
255
255
255
255
255
255
255
255
255
255
255
255
255
255
255
255
255
255
255
255
255
255
255
255
255
255
255
255
255
254
254
254
255
255
255
240
244
249
135
176
217
102
152
203
102
152
203
111
159
209
223
233
243
255
255
255
252
252
252
255
255
255
238
240
242
140
184
228
100
150
200
102
152
203
114
162
210
218
230
241
255
255
255
253
253
253
255
255
255
255
255
255
255
255
255
255
255
255
255
255
255
255
255
255
254
254
254
255
255
255
254
254
254
169
202
235
100
150
200
104
153
204
104
155
207
188
208
229
255
255
255
252
252
252
254
254
254
255
255
255
169
202
235
100
150
200
103
153
203
104
155
207
185
206
228
255
255
255
253
253
253
255
255
255
255
255
255
255
255
255
255
255
255
255
255
255
255
255
255
255
255
255
255
255
255
255
255
255
255
255
255
255
255
255
255
255
255
255
255
255
255
255
255
255
255
255
255
255
255
255
255
255
255
255
255
255
255
255
255
255
255
254
254
254
255
255
255
240
244
249
135
176
217
102
152
203
102
152
203
111
159
209
223
233
243
255
255
255
252
252
252
255
255
255
238
240
242
140
184
228
100
150
200
102
152
203
114
162
210
218
230
241
255
255
255
253
253
253
255
255
255
255
255
255
255
255
255
255
255
255
255
255
255
255
255
255
254
254
254
255
255
255
254
254
254
169
202
235
100
150
200
104
153
204
104
155
207
188
208
229
255
255
255
252
252
252
254
254
254
255
255
255
169
202
235
100
150
200
103
153
203
104
155
207
185
206
228
255
255
255
253
253
253
255
255
255
255
255
255
255
255
255
255
255
255
255
255
255
255
255
255
255
255
255
255
255
255
255
255
255
255
255
255
255
255
255
255
255
255
255
255
255
255
255
255
255
255
255
255
255
255
255
255
255
255
255
255
255
255
255
255
255
255
254
254
254
255
255
255
240
244
249
135
176
217
102
152
203
102
152
203
111
159
209
223
233
243
255
255
255
252
252
252
255
255
255
238
240
242
140
184
228
100
150
200
102
152
203
114
162
210
218
230
241
255
255
255
253
253
253
255
255
255
255
255
255
255
255
255
255
255
255
255
255
255
255
255
255
254
254
254
255
255
255
254
254
254
169
202
235
100
150
200
104
153
204
104
155
207
188
208
229
255
255
255
252
252
252
255
255
255
255
255
255
162
198
233
100
150
200
104
153
204
104
155
207
185
206
228
255
255
255
253
253
253
255
255
255
255
255
255
255
255
255
255
255
255
255
255
255
255
255
255
255
255
255
255
255
255
255
255
255
255
255
255
255
255
255
255
255
255
255
255
255
255
255
255
255
255
255
255
255
255
255
255
255
255
255
255
255
255
255
255
255
255
254
254
254
255
255
255
240
244
249
135
176
217
102
152
203
102
152
203
111
159
209
223
233
243
255
255
255
252
252
252
255
255
255
238
240
242
140
184
228
100
150
200
102
152
203
114
162
210
218
230
241
255
255
255
253
253
253
255
255
255
255
255
255
255
255
255
255
255
255
255
255
255
255
255
255
254
254
254
255
255
255
254
254
254
169
202
235
100
150
200
104
153
204
104
155
207
188
208
229
255
255
255
252
252
252
255
255
255
255
255
255
152
191
231
100
150
200
104
153
204
104
155
207
185
206
228
255
255
255
253
253
253
255
255
255
255
255
255
255
255
255
255
255
255
255
255
255
255
255
255
255
255
255
255
255
255
255
255
255
255
255
255
255
255
255
255
255
255
255
255
255
255
255
255
255
255
255
255
255
255
255
255
255
255
255
255
255
255
255
255
255
255
254
254
254
255
255
255
240
244
249
135
176
217
102
152
203
102
152
203
111
159
209
223
233
243
255
255
255
252
252
252
255
255
255
238
240
242
140
184
228
100
150
200
102
152
203
114
162
210
218
230
241
255
255
255
253
253
253
255
255
255
255
255
255
255
255
255
255
255
255
255
255
255
255
255
255
254
254
254
255
255
255
254
254
254
169
202
235
100
150
200
104
153
204
104
155
207
188
208
229
255
255
255
252
252
252
255
255
255
255
255
255
152
191
231
100
150
200
104
153
204
104
155
207
185
206
228
255
255
255
253
253
253
255
255
255
255
255
255
255
255
255
255
255
255
255
255
255
255
255
255
255
255
255
255
255
255
255
255
255
255
255
255
255
255
255
255
255
255
255
255
255
255
255
255
255
255
255
255
255
255
255
255
255
255
255
255
255
255
255
255
255
255
254
254
254
255
255
255
240
244
249
135
176
217
102
152
203
102
152
203
111
159
209
223
233
243
255
255
255
252
252
252
255
255
255
238
240
242
140
184
228
100
150
200
102
152
203
114
162
210
218
230
241
255
255
255
253
253
253
255
255
255
255
255
255
255
255
255
255
255
255
255
255
255
255
255
255
254
254
254
255
255
255
254
254
254
169
202
235
100
150
200
104
153
204
104
155
207
188
208
229
255
255
255
252
252
252
255
255
255
255
255
255
152
191
231
100
150
200
104
153
204
104
155
207
185
206
228
255
255
255
253
253
253
255
255
255
255
255
255
255
255
255
255
255
255
255
255
255
255
255
255
255
255
255
255
255
255
255
255
255
255
255
255
255
255
255
255
255
255
255
255
255
255
255
255
255
255
255
255
255
255
255
255
255
255
255
255
255
255
255
255
255
255
254
254
254
255
255
255
240
244
249
135
176
217
102
152
203
102
152
203
111
159
209
223
233
243
255
255
255
252
252
252
255
255
255
238
240
242
140
184
228
100
150
200
102
152
203
114
162
210
218
230
241
255
255
255
253
253
253
255
255
255
254
254
254
254
254
254
254
254
254
254
254
254
255
255
255
254
254
254
255
255
255
254
254
254
169
202
235
100
150
200
104
153
204
104
155
207
188
208
229
255
255
255
252
252
252
255
255
255
255
255
255
152
191
231
100
150
200
104
153
204
104
155
207
185
206
228
255
255
255
253
253
253
255
255
255
255
255
255
255
255
255
255
255
255
255
255
255
255
255
255
255
255
255
255
255
255
255
255
255
255
255
255
255
255
255
255
255
255
255
255
255
255
255
255
255
255
255
255
255
255
255
255
255
255
255
255
255
255
255
255
255
255
254
254
254
255
255
255
240
244
249
135
176
217
102
152
203
102
152
203
111
159
209
223
233
243
255
255
255
252
252
252
255
255
255
238
240
242
140
184
228
100
150
200
102
152
203
114
162
210
218
230
241
255
255
255
252
252
253
255
255
255
255
255
255
255
255
255
255
255
255
255
255
255
255
255
255
253
254
254
255
255
255
254
254
254
169
202
235
100
150
200
104
153
204
104
155
207
188
208
229
255
255
255
252
252
252
255
255
255
255
255
255
152
191
231
100
150
200
104
153
204
104
155
207
185
206
228
255
255
255
253
253
253
255
255
255
255
255
255
255
255
255
255
255
255
255
255
255
255
255
255
255
255
255
255
255
255
255
255
255
255
255
255
255
255
255
255
255
255
255
255
255
255
255
255
255
255
255
255
255
255
255
255
255
255
255
255
255
255
255
255
255
255
254
254
254
255
255
255
240
244
249
135
176
217
102
152
203
102
152
203
111
159
209
223
233
243
255
255
255
252
252
252
255
255
255
238
240
242
140
184
228
100
150
200
102
152
203
114
162
210
218
230
242
255
255
255
246
247
248
193
220
248
162
196
230
166
201
234
169
202
235
169
202
235
169
201
233
221
236
251
255
255
255
253
254
254
170
203
237
100
150
200
104
153
204
104
155
207
188
208
229
255
255
255
252
252
252
255
255
255
255
255
255
152
191
231
100
150
200
104
153
204
104
155
207
185
206
228
255
255
255
253
253
253
255
255
255
255
255
255
255
255
255
255
255
255
255
255
255
255
255
255
255
255
255
255
255
255
255
255
255
255
255
255
255
255
255
255
255
255
255
255
255
255
255
255
255
255
255
255
255
255
255
255
255
255
255
255
255
255
255
255
255
255
254
254
254
255
255
255
240
244
249
135
176
217
102
152
203
102
152
203
111
159
209
223
233
243
255
255
255
252
252
252
255
255
255
238
240
242
140
184
228
100
150
200
102
152
203
114
162
210
218
229
241
255
255
255
255
255
255
192
214
236
117
161
205
119
163
207
101
151
200
100
149
199
127
169
211
232
239
246
255
255
255
253
254
254
169
202
235
100
150
200
104
153
204
104
155
207
188
208
229
255
255
255
252
252
252
255
255
255
255
255
255
152
191
231
100
150
200
104
153
204
104
155
207
185
206
228
255
255
255
253
253
253
255
255
255
255
255
255
255
255
255
255
255
255
255
255
255
255
255
255
255
255
255
255
255
255
255
255
255
255
255
255
255
255
255
255
255
255
255
255
255
255
255
255
255
255
255
255
255
255
255
255
255
255
255
255
255
255
255
255
255
255
254
254
254
255
255
255
240
244
249
135
176
217
102
152
203
102
152
203
111
159
209
223
233
243
255
255
255
252
252
252
255
255
255
238
240
242
140
184
228
100
150
200
102
152
203
114
162
210
218
230
241
255
255
255
254
254
254
253
253
254
232
240
249
172
199
226
111
159
207
101
151
200
169
202
234
255
255
255
255
255
255
254
254
254
169
202
235
100
150
200
104
153
204
104
155
207
188
208
229
255
255
255
252
252
252
255
255
255
255
255
255
152
191
231
100
150
200
104
153
204
104
155
207
185
206
228
255
255
255
253
253
253
255
255
255
255
255
255
255
255
255
255
255
255
255
255
255
255
255
255
255
255
255
255
255
255
255
255
255
255
255
255
255
255
255
255
255
255
255
255
255
255
255
255
255
255
255
255
255
255
255
255
255
255
255
255
255
255
255
255
255
255
254
254
254
255
255
255
240
244
249
135
176
217
102
152
203
102
152
203
111
159
209
223
233
243
255
255
255
252
252
252
255
255
255
238
240
242
140
184
228
100
150
200
102
152
203
114
162
210
218
230
241
255
255
255
254
254
254
243
247
250
167
197
228
108
156
205
103
153
204
100
150
200
170
203
235
254
254
254
255
255
255
254
254
254
169
202
235
100
150
200
104
153
204
104
155
207
188
208
229
255
255
255
252
252
252
255
255
255
255
255
255
152
191
231
100
150
200
104
153
204
104
155
207
185
206
228
255
255
255
253
253
253
255
255
255
255
255
255
255
255
255
255
255
255
255
255
255
255
255
255
255
255
255
255
255
255
255
255
255
255
255
255
255
255
255
255
255
255
255
255
255
255
255
255
255
255
255
255
255
255
255
255
255
255
255
255
255
255
255
255
255
255
254
254
254
255
255
255
240
244
249
135
176
217
102
152
203
102
152
203
111
159
209
223
233
243
255
255
255
252
252
252
255
255
255
238
240
242
140
184
228
100
150
200
102
152
203
114
162
210
218
230
241
255
255
255
255
255
255
224
234
244
113
161
210
102
152
203
104
154
205
100
150
200
170
203
235
254
254
254
255
255
255
254
254
254
169
202
235
100
150
200
104
153
204
104
155
207
188
208
229
255
255
255
252
252
252
255
255
255
255
255
255
152
191
231
100
150
200
104
153
204
104
155
207
185
206
228
255
255
255
253
253
253
255
255
255
255
255
255
255
255
255
255
255
255
255
255
255
255
255
255
255
255
255
255
255
255
255
255
255
255
255
255
255
255
255
255
255
255
255
255
255
255
255
255
255
255
255
255
255
255
255
255
255
255
255
255
255
255
255
255
255
255
254
254
254
255
255
255
240
244
249
135
176
217
102
152
203
102
152
203
111
159
209
223
233
243
255
255
255
252
252
252
255
255
255
238
240
242
140
184
228
100
150
200
102
152
203
114
162
210
218
230
241
255
255
255
255
255
255
225
234
243
118
164
212
103
152
203
104
154
205
100
150
200
170
203
235
254
254
254
255
255
255
254
254
254
169
202
235
100
150
200
104
153
204
104
155
207
188
208
229
255
255
255
252
252
252
255
255
255
255
255
255
152
191
231
100
150
200
104
153
204
104
155
207
185
206
228
255
255
255
253
253
253
255
255
255
255
255
255
255
255
255
255
255
255
255
255
255
255
255
255
255
255
255
255
255
255
255
255
255
255
255
255
255
255
255
255
255
255
255
255
255
255
255
255
255
255
255
255
255
255
255
255
255
255
255
255
255
255
255
255
255
255
254
254
254
255
255
255
240
244
249
135
176
217
102
152
203
102
152
203
111
159
209
223
233
243
255
255
255
252
252
252
255
255
255
238
240
242
140
184
228
100
150
200
102
152
203
114
162
210
218
230
241
255
255
255
255
255
255
225
234
243
118
164
211
102
152
203
104
154
205
100
150
200
170
203
235
254
254
254
255
255
255
254
254
254
169
202
235
100
150
200
104
153
204
104
155
207
188
208
229
255
255
255
252
252
252
255
255
255
255
255
255
152
191
231
100
150
200
104
153
204
104
155
207
185
206
228
255
255
255
253
253
253
255
255
255
255
255
255
255
255
255
255
255
255
255
255
255
255
255
255
255
255
255
255
255
255
255
255
255
255
255
255
255
255
255
255
255
255
255
255
255
255
255
255
255
255
255
255
255
255
255
255
255
255
255
255
255
255
255
255
255
255
254
254
254
255
255
255
240
244
249
135
176
217
102
152
203
102
152
203
111
159
209
223
233
243
255
255
255
252
252
252
255
255
255
238
240
242
140
184
228
100
150
200
102
152
203
114
162
210
218
230
241
255
255
255
255
255
255
225
234
243
118
164
211
102
152
203
104
154
205
100
150
200
170
203
235
254
254
254
255
255
255
254
254
254
169
202
235
100
150
200
104
153
204
104
155
207
188
208
229
255
255
255
252
252
252
255
255
255
255
255
255
152
191
231
100
150
200
104
153
204
104
155
207
185
206
228
255
255
255
253
253
253
255
255
255
255
255
255
255
255
255
255
255
255
255
255
255
255
255
255
255
255
255
255
255
255
255
255
255
255
255
255
255
255
255
255
255
255
255
255
255
255
255
255
255
255
255
255
255
255
255
255
255
255
255
255
255
255
255
255
255
255
254
254
254
255
255
255
240
244
249
135
176
217
102
152
203
102
152
203
111
159
209
223
233
243
255
255
255
252
252
252
255
255
255
238
240
242
140
184
228
100
150
200
102
152
203
114
162
210
218
230
241
255
255
255
255
255
255
224
233
243
118
164
212
102
152
203
104
154
205
100
150
200
170
203
236
254
254
254
255
255
255
254
254
254
169
202
235
100
150
200
104
153
204
104
155
207
188
208
229
255
255
255
252
252
252
255
255
255
255
255
255
152
191
231
100
150
200
104
153
204
104
155
207
185
206
228
255
255
255
253
253
253
255
255
255
255
255
255
255
255
255
255
255
255
255
255
255
255
255
255
255
255
255
255
255
255
255
255
255
255
255
255
255
255
255
255
255
255
255
255
255
255
255
255
255
255
255
255
255
255
255
255
255
255
255
255
255
255
255
255
255
255
254
254
254
255
255
255
240
244
249
135
176
217
102
152
203
102
152
203
111
159
209
223
233
243
255
255
255
252
252
252
255
255
255
238
240
242
140
184
228
100
150
200
102
152
203
114
162
210
218
230
241
255
255
255
255
255
255
226
236
246
116
161
208
103
152
203
104
155
205
102
151
201
168
199
231
255
255
255
255
255
255
254
254
254
169
202
235
100
150
200
104
153
204
104
155
207
188
208
229
255
255
255
252
252
252
255
255
255
255
255
255
152
191
231
100
150
200
104
153
204
104
155
207
185
206
228
255
255
255
253
253
253
255
255
255
255
255
255
255
255
255
255
255
255
255
255
255
255
255
255
255
255
255
255
255
255
255
255
255
255
255
255
255
255
255
255
255
255
255
255
255
255
255
255
255
255
255
255
255
255
255
255
255
255
255
255
255
255
255
255
255
255
253
253
253
253
253
253
239
244
249
137
177
217
103
153
203
103
153
203
112
160
209
223
233
243
255
255
255
252
252
252
255
255
255
238
240
242
140
184
228
100
150
200
102
152
203
114
162
210
218
230
241
255
255
255
251
252
252
182
210
238
100
150
199
102
152
203
102
152
203
102
152
203
126
168
212
223
233
244
255
255
255
253
254
254
169
202
235
100
150
200
104
153
204
104
155
207
188
208
229
255
255
255
252
252
252
255
255
255
255
255
255
152
192
231
102
151
201
105
154
204
105
156
207
185
206
228
254
254
254
252
252
252
255
255
255
255
255
255
255
255
255
255
255
255
255
255
255
255
255
255
255
255
255
255
255
255
255
255
255
255
255
255
255
255
255
255
255
255
255
255
255
255
255
255
255
255
255
255
255
255
255
255
255
255
255
255
255
255
255
255
255
255
255
255
255
255
255
255
240
244
249
130
173
217
102
152
203
102
152
203
105
156
207
222
232
243
255
255
255
252
252
252
255
255
255
238
240
242
140
185
228
101
150
200
103
152
203
115
162
210
218
230
241
255
255
255
246
247
249
163
201
240
108
156
204
115
163
210
113
161
210
112
160
209
117
165
214
207
224
241
255
255
255
253
253
253
170
202
235
101
150
200
104
154
204
105
155
207
189
209
229
255
255
255
252
252
252
255
255
255
255
255
255
149
189
229
100
150
200
102
152
203
104
156
208
182
204
226
255
255
255
255
255
255
254
254
254
254
254
254
254
254
254
255
255
255
255
255
255
255
255
255
255
255
255
255
255
255
255
255
255
255
255
255
255
255
255
255
255
255
255
255
255
255
255
255
255
255
255
255
255
255
255
255
255
255
255
255
254
254
254
255
255
255
224
238
251
218
231
243
250
251
253
185
209
232
140
178
217
136
175
215
157
191
225
235
241
246
253
253
253
252
252
252
255
255
255
237
240
242
137
183
227
100
150
200
102
152
203
112
160
210
217
229
240
255
255
255
252
252
253
236
240
244
227
236
245
228
236
244
225
234
243
228
236
245
229
237
245
245
246
247
255
255
255
254
254
254
167
201
234
100
150
200
104
153
204
104
155
207
186
207
228
255
255
255
252
252
252
254
254
254
253
254
254
202
223
244
147
182
216
146
183
219
160
192
225
228
236
244
254
254
254
216
230
245
236
242
248
255
255
255
255
255
255
255
255
255
255
255
255
255
255
255
255
255
255
255
255
255
255
255
255
255
255
255
255
255
255
255
255
255
255
255
255
255
255
255
255
255
255
255
255
255
255
255
255
254
254
254
253
253
253
255
255
255
186
212
237
113
159
204
163
194
225
206
223
239
226
236
245
242
246
250
255
255
255
255
255
255
255
255
255
255
255
255
254
254
254
241
243
244
153
193
232
100
150
200
102
152
203
127
169
213
225
235
244
254
254
254
252
252
252
255
255
255
255
255
255
255
255
255
255
255
255
255
255
255
255
255
255
255
255
255
253
253
253
253
254
254
180
210
238
102
152
200
102
152
203
111
160
209
198
215
232
254
254
254
252
252
252
255
255
255
255
255
255
255
255
255
255
255
255
250
251
253
240
245
250
211
226
241
163
196
229
123
167
210
212
226
240
245
248
251
247
249
252
255
255
255
255
255
255
255
255
255
255
255
255
255
255
255
255
255
255
255
255
255
255
255
255
255
255
255
255
255
255
255
255
255
255
255
255
255
255
255
255
255
255
255
255
255
255
255
255
253
254
254
188
214
240
99
148
198
102
153
204
107
156
206
131
172
214
160
192
223
189
211
233
215
227
240
233
240
247
247
250
252
255
255
255
255
255
255
238
244
250
217
229
242
217
229
242
232
240
248
255
255
255
255
255
255
255
255
255
255
255
255
254
254
254
254
254
254
254
254
254
254
254
254
254
254
254
255
255
255
255
255
255
255
255
255
244
248
252
220
231
243
217
229
242
225
235
245
251
252
253
255
255
255
255
255
255
246
249
251
233
240
246
214
226
238
191
213
234
161
192
224
131
173
214
106
155
205
101
151
202
103
154
204
128
170
213
136
177
217
137
176
216
201
224
247
254
254
254
255
255
255
255
255
255
255
255
255
255
255
255
255
255
255
255
255
255
255
255
255
255
255
255
255
255
255
255
255
255
255
255
255
255
255
255
239
242
246
249
250
251
255
255
255
224
235
246
147
185
223
107
157
207
102
153
204
102
153
204
102
153
204
102
153
204
110
158
208
128
171
215
144
182
220
166
200
234
181
208
234
198
217
236
218
231
243
231
239
247
235
242
249
235
241
247
241
245
249
241
246
250
247
249
252
251
252
254
251
252
253
251
252
253
251
252
253
250
252
253
244
248
251
241
246
250
240
244
249
236
242
248
236
242
249
229
237
246
214
228
241
196
216
236
182
209
237
165
199
233
143
182
220
128
172
215
110
160
209
102
153
203
102
153
204
102
153
204
102
153
204
103
154
204
102
153
204
102
153
204
102
153
203
99
149
199
152
191
229
249
249
250
255
255
255
254
254
254
255
255
255
255
255
255
255
255
255
255
255
255
255
255
255
255
255
255
255
255
255
255
255
255
254
254
254
255
255
255
180
204
229
161
195
229
231
238
245
255
255
255
250
251
252
202
219
236
151
186
221
116
163
209
102
153
204
102
153
204
102
153
204
102
152
203
102
152
203
100
150
200
101
152
202
103
153
204
105
155
205
109
157
206
118
164
209
128
171
215
138
177
218
137
177
218
146
183
220
152
187
222
152
187
222
152
187
222
152
187
222
151
186
222
142
180
219
138
177
218
136
177
219
124
169
212
116
163
209
106
156
205
104
154
205
102
153
204
100
150
200
100
150
200
102
152
203
102
152
203
102
153
204
102
153
204
103
154
204
103
154
204
103
153
204
102
153
204
102
153
204
103
154
204
104
155
205
102
151
201
157
195
232
248
249
250
255
255
255
254
254
254
255
255
255
255
255
255
255
255
255
255
255
255
255
255
255
255
255
255
255
255
255
255
255
255
253
253
253
255
255
255
165
192
218
103
154
205
129
172
215
179
204
230
228
235
242
255
255
255
255
255
255
226
236
245
187
210
232
153
187
221
124
168
211
110
158
207
102
153
204
102
153
204
102
153
204
102
153
204
102
153
204
102
153
204
102
153
204
102
153
204
102
152
203
102
152
203
102
152
203
102
152
203
102
152
203
102
152
203
102
152
203
102
152
203
102
152
203
102
152
203
102
152
203
102
153
204
102
153
204
102
153
204
102
153
204
102
153
204
103
153
204
103
154
204
103
154
204
103
154
204
103
153
204
102
153
204
102
153
204
102
153
204
102
153
204
102
153
204
102
153
204
102
153
204
104
154
205
101
151
200
154
192
231
248
249
250
255
255
255
254
254
254
255
255
255
255
255
255
255
255
255
255
255
255
255
255
255
255
255
255
255
255
255
255
255
255
253
253
253
255
255
255
193
213
234
104
154
204
102
151
202
102
153
204
122
169
214
163
195
227
203
220
237
240
245
250
255
255
255
255
255
255
243
247
251
217
229
242
190
212
233
164
194
225
145
181
218
127
169
212
112
159
207
107
157
206
104
154
205
102
153
204
102
153
204
102
153
204
102
153
204
102
153
204
102
153
204
102
153
204
102
153
204
102
153
204
102
153
204
102
153
204
103
154
204
109
158
206
110
158
207
103
153
204
103
153
204
103
153
204
102
153
204
102
153
204
102
153
204
102
153
204
102
153
204
102
153
204
102
153
204
102
153
204
102
153
204
102
153
204
103
153
204
103
154
204
103
153
204
98
147
197
171
204
236
252
252
253
254
254
254
255
255
255
255
255
255
255
255
255
255
255
255
255
255
255
255
255
255
255
255
255
255
255
255
255
255
255
254
254
254
255
255
255
246
247
249
181
209
238
111
157
205
101
151
201
102
152
203
101
152
203
106
155
205
124
168
211
155
188
222
187
209
232
214
228
241
236
243
249
253
254
254
255
255
255
248
251
253
242
246
251
235
242
248
221
232
244
205
222
238
194
215
235
184
208
231
177
203
229
166
196
225
167
196
226
167
197
226
167
197
226
169
198
226
167
196
226
170
199
227
178
203
229
175
202
228
167
196
226
137
176
216
103
153
204
102
153
204
102
153
204
102
153
204
102
153
204
102
153
204
102
153
204
102
153
204
102
153
204
102
153
204
103
153
204
103
154
204
103
153
204
102
153
204
102
152
203
103
151
200
160
195
229
236
243
249
255
255
255
254
254
254
255
255
255
255
255
255
255
255
255
255
255
255
255
255
255
255
255
255
255
255
255
255
255
255
255
255
255
255
255
255
255
255
255
255
255
255
254
254
255
213
228
244
154
190
227
111
158
206
100
150
200
102
152
203
102
152
203
102
153
204
102
153
204
109
157
206
123
167
211
135
175
215
155
188
222
175
201
228
191
212
234
206
223
239
215
229
242
221
233
244
223
233
244
231
239
247
234
241
248
234
241
248
229
237
246
221
233
244
220
231
243
211
226
240
198
217
236
181
206
230
162
193
224
139
177
216
121
165
210
105
155
205
102
153
204
102
153
204
102
153
204
102
153
204
102
153
204
103
153
204
103
153
204
103
154
204
103
154
204
103
153
204
102
152
203
102
152
203
100
150
200
109
157
205
145
183
220
202
223
244
248
250
251
255
255
255
254
254
254
255
255
255
255
255
255
255
255
255
255
255
255
255
255
255
255
255
255
255
255
255
255
255
255
255
255
255
255
255
255
255
255
255
255
255
255
254
254
254
255
255
255
255
255
255
249
251
252
220
233
245
179
208
237
138
177
218
114
162
211
100
151
201
100
150
200
101
151
202
102
153
204
102
152
203
102
153
204
102
153
204
102
153
204
102
153
204
106
155
205
111
159
207
112
160
207
119
165
210
122
166
211
122
166
211
117
163
209
111
159
207
109
158
206
102
153
204
102
153
204
102
153
204
102
153
204
102
153
204
102
153
204
103
153
204
103
154
204
103
154
204
103
154
204
103
154
204
103
153
204
102
152
203
102
153
204
101
151
202
100
150
200
100
151
201
112
161
210
135
176
217
175
205
237
214
228
242
247
250
252
255
255
255
255
255
255
254
254
254
255
255
255
255
255
255
255
255
255
255
255
255
255
255
255
255
255
255
255
255
255
255
255
255
255
255
255
255
255
255
255
255
255
255
255
255
255
255
255
255
255
255
255
255
255
253
253
253
255
255
255
255
255
255
255
255
255
244
247
250
217
229
241
194
217
240
166
200
235
138
181
223
122
168
213
111
161
210
102
153
204
100
150
200
101
151
201
100
151
201
100
151
201
101
151
201
102
153
204
102
153
204
102
153
204
102
153
204
102
153
204
102
153
204
102
153
204
102
153
204
102
153
204
102
153
204
102
153
204
102
153
204
102
153
204
101
151
201
100
151
201
100
151
201
101
151
201
100
150
200
102
153
204
109
159
210
120
166
212
138
181
223
164
199
234
192
216
239
216
228
240
242
246
249
255
255
255
255
255
255
255
255
255
253
253
253
254
254
254
255
255
255
255
255
255
255
255
255
255
255
255
255
255
255
255
255
255
255
255
255
255
255
255
255
255
255
255
255
255
255
255
255
255
255
255
255
255
255
255
255
255
255
255
255
255
255
255
255
255
255
254
254
254
253
253
253
254
254
254
255
255
255
255
255
255
255
255
255
254
254
254
245
247
249
229
237
245
209
222
236
195
215
235
183
211
238
167
200
232
155
192
229
145
185
226
134
179
224
124
169
212
121
166
210
121
166
210
116
162
209
114
161
208
114
161
208
114
161
208
113
161
208
113
161
208
114
161
208
120
165
210
121
165
210
124
168
212
133
179
224
143
184
226
153
191
228
166
199
232
181
209
237
194
215
235
208
222
236
227
236
245
244
246
249
253
254
254
255
255
255
255
255
255
255
255
255
254
254
254
253
253
253
254
254
254
255
255
255
255
255
255
255
255
255
255
255
255
255
255
255
255
255
255
255
255
255
255
255
255
255
255
255
255
255
255
255
255
255
255
255
255
255
255
255
255
255
255
255
255
255
255
255
255
255
255
255
255
255
255
255
255
255
255
255
255
255
255
255
255
255
255
254
254
254
253
253
253
253
253
253
255
255
255
255
255
255
255
255
255
255
255
255
255
255
255
255
255
255
253
253
253
248
249
250
244
245
247
240
242
244
234
240
247
227
236
246
226
235
245
214
227
241
210
225
240
210
225
240
210
225
240
210
225
240
210
225
240
212
227
241
226
235
245
227
236
246
233
240
247
241
243
245
243
245
246
248
249
250
253
253
253
255
255
255
255
255
255
255
255
255
255
255
255
255
255
255
255
255
255
253
253
253
253
253
253
254
254
254
255
255
255
255
255
255
255
255
255
255
255
255
255
255
255
255
255
255
255
255
255
255
255
255
255
255
255
255
255
255
255
255
255
255
255
255
255
255
255
