P2
64
64
255
255
255
255
255
255
255
255
255
255
255
255
255
255
255
255
255
255
255
253
254
255
255
255
246
236
218
207
195
189
179
177
177
179
187
195
207
220
239
248
255
255
255
253
254
255
255
255
255
255
255
255
255
255
255
255
255
255
255
255
255
255
255
255
255
255
255
255
255
255
255
255
255
255
255
255
255
255
255
255
255
254
254
255
255
246
225
205
180
164
157
153
153
153
153
153
153
153
153
153
153
158
165
183
208
228
248
255
255
253
254
255
255
255
255
255
255
255
255
255
255
255
255
255
255
255
255
255
255
255
255
255
255
255
255
255
255
255
255
255
255
255
255
255
254
255
255
241
214
177
156
150
152
153
153
153
153
153
153
153
153
153
153
153
153
153
153
151
151
160
187
219
246
255
255
253
255
255
255
255
255
255
255
255
255
255
255
255
255
255
255
255
255
255
255
255
255
255
255
255
255
255
255
255
255
255
255
253
255
250
221
173
150
152
152
152
153
154
153
153
153
153
153
153
153
153
153
153
153
153
153
153
153
153
151
150
178
225
251
255
253
255
255
255
255
255
255
255
255
255
255
255
255
255
255
255
255
255
255
255
255
255
255
255
255
255
255
255
255
255
254
255
241
193
147
150
150
153
155
156
155
150
150
151
153
153
153
153
153
153
153
153
153
153
153
153
153
153
153
153
152
152
197
240
255
253
254
255
255
255
255
255
255
255
255
255
255
255
255
255
255
255
255
255
255
255
255
255
255
255
255
255
255
255
254
228
172
158
181
200
213
215
216
218
212
214
203
185
165
151
151
153
153
153
153
153
153
153
153
153
153
153
153
153
153
153
150
171
231
255
254
255
255
255
255
255
255
255
255
255
255
255
255
255
255
255
255
255
255
255
255
255
255
255
255
255
254
255
244
214
207
234
247
253
255
255
255
255
255
255
253
247
235
214
181
152
153
153
153
153
153
153
153
153
153
153
153
153
153
153
153
152
158
221
254
254
254
255
255
255
255
255
255
255
255
255
255
255
255
255
255
255
255
255
255
255
255
255
255
255
255
255
251
247
255
255
255
253
251
252
253
255
255
255
255
255
255
255
253
219
167
153
153
153
153
153
153
153
153
153
153
153
153
153
153
153
153
154
218
255
254
254
255
255
255
255
255
255
255
255
255
255
255
255
255
255
255
255
255
255
255
255
255
255
255
255
254
255
253
255
255
255
255
255
253
250
243
233
225
220
213
204
210
216
185
153
153
153
153
153
153
153
153
153
153
153
153
153
153
153
153
153
155
225
255
254
255
255
255
255
255
255
255
255
255
255
255
255
255
255
255
255
255
255
255
255
255
254
253
254
255
255
255
250
239
225
219
206
194
178
165
161
157
156
156
158
156
152
153
153
153
153
153
153
153
153
153
153
153
153
153
153
153
153
153
153
153
163
234
255
254
255
255
255
255
255
255
255
255
255
255
255
255
255
255
255
255
255
255
255
253
255
255
255
243
225
208
181
164
156
150
151
159
168
176
184
192
201
205
210
218
218
218
217
211
205
202
194
187
178
171
164
155
153
153
153
153
153
153
153
154
152
176
244
255
254
255
255
255
255
255
255
255
255
255
255
255
255
255
255
255
255
255
255
255
252
232
203
171
153
151
164
183
203
221
233
241
249
255
255
255
255
253
254
253
249
249
253
254
253
255
255
255
255
247
239
229
216
199
181
166
155
153
153
153
154
150
204
254
254
254
255
255
255
255
255
255
255
255
255
255
255
255
255
255
255
254
254
233
192
153
151
174
205
229
249
255
251
247
239
226
212
202
195
192
186
183
184
180
168
169
179
184
183
188
193
201
209
219
232
243
249
253
255
243
225
202
175
157
153
153
159
231
255
253
255
255
255
255
255
255
255
255
255
255
255
255
255
255
254
255
228
154
155
193
231
252
250
237
212
194
181
169
158
156
177
182
153
151
150
150
150
163
203
199
163
150
150
150
150
150
151
153
156
162
173
187
202
222
242
251
251
230
197
168
150
189
250
255
254
255
255
255
255
255
255
255
255
255
255
255
255
254
255
250
189
171
231
253
233
204
176
159
170
169
150
151
151
180
231
248
216
187
198
200
199
226
255
255
231
206
207
201
196
189
174
157
153
153
153
153
153
155
162
179
205
232
252
243
201
163
226
255
253
255
255
255
255
255
255
255
255
255
255
255
255
254
255
244
220
241
250
194
160
153
153
161
233
240
203
207
218
241
255
255
255
251
253
254
255
255
254
254
255
255
255
255
255
253
246
239
218
196
169
150
152
153
153
153
153
158
184
237
255
220
233
255
254
255
255
255
255
255
255
255
255
255
255
255
255
255
255
254
254
255
237
171
202
199
197
224
250
255
255
255
241
227
227
224
220
234
254
255
255
254
255
255
254
253
253
255
241
222
226
231
230
230
237
217
175
152
153
153
153
153
150
218
254
255
254
255
255
255
255
255
255
255
255
255
255
255
255
255
255
255
255
255
254
254
252
227
247
255
255
255
255
254
254
253
207
159
162
162
157
202
253
254
254
255
255
255
255
255
253
255
218
171
163
157
155
175
244
255
244
201
158
153
153
152
174
240
255
252
255
255
255
255
255
255
255
255
255
255
255
255
255
255
255
255
255
255
255
255
255
238
215
219
220
219
233
253
254
255
240
195
155
152
156
222
255
254
255
255
255
255
255
255
255
255
246
210
161
153
150
207
253
251
255
235
162
153
154
150
189
246
255
254
255
255
255
255
255
255
255
255
255
255
255
255
255
255
255
255
255
255
255
254
255
213
162
157
154
150
190
252
254
255
245
187
150
152
163
231
255
253
255
255
255
255
255
255
255
255
255
206
150
154
155
211
255
251
254
226
169
159
153
150
185
242
255
254
255
255
255
255
255
255
255
255
255
255
255
255
255
255
255
255
255
255
255
254
255
246
200
156
152
156
227
255
252
255
239
183
150
152
162
229
255
253
255
255
255
255
255
255
254
255
253
200
150
153
155
208
255
252
255
252
219
162
152
152
209
255
254
255
255
255
255
255
255
255
255
255
255
255
255
255
255
255
255
255
255
255
255
254
255
246
178
152
152
160
234
255
252
255
240
184
150
152
162
229
255
253
255
255
255
255
255
255
254
255
254
202
150
153
155
208
255
252
254
255
202
150
153
155
205
255
253
255
255
255
255
255
255
255
255
255
255
255
255
255
255
255
255
255
255
255
255
254
255
244
175
152
152
159
232
255
252
255
240
184
150
152
162
229
255
253
255
255
255
255
255
255
254
255
254
202
150
153
155
208
255
252
254
255
202
150
153
155
206
255
253
255
255
255
255
255
255
255
255
255
255
255
255
255
255
255
255
255
255
255
255
254
255
244
176
152
152
159
233
255
252
255
240
184
150
152
162
229
255
253
255
255
255
255
255
255
254
255
254
202
150
153
155
208
255
252
254
255
202
150
153
155
206
255
253
255
255
255
255
255
255
255
255
255
255
255
255
255
255
255
255
255
255
255
255
254
255
244
176
152
152
159
233
255
252
255
240
184
150
152
162
229
255
253
255
255
255
255
255
255
254
255
254
202
150
153
155
208
255
252
254
255
202
150
153
155
206
255
253
255
255
255
255
255
255
255
255
255
255
255
255
255
255
255
255
255
255
255
255
254
255
244
176
152
152
159
233
255
252
255
240
184
150
152
162
229
255
253
255
255
255
255
255
255
254
255
254
202
150
153
155
208
255
252
254
255
202
150
153
155
206
255
253
255
255
255
255
255
255
255
255
255
255
255
255
255
255
255
255
255
255
255
255
254
255
244
176
152
152
159
233
255
252
255
240
184
150
152
162
229
255
253
255
255
255
255
255
255
254
255
254
202
150
153
155
208
255
252
254
255
202
150
153
155
206
255
253
255
255
255
255
255
255
255
255
255
255
255
255
255
255
255
255
255
255
255
255
254
255
244
176
152
152
159
233
255
252
255
240
184
150
152
162
229
255
253
255
255
255
255
255
255
254
255
254
202
150
153
155
208
255
252
254
255
202
150
153
155
206
255
253
255
255
255
255
255
255
255
255
255
255
255
255
255
255
255
255
255
255
255
255
254
255
244
176
152
152
159
233
255
252
255
240
184
150
152
162
229
255
253
255
255
255
255
255
255
254
255
254
202
150
153
155
208
255
252
254
255
202
150
153
155
206
255
253
255
255
255
255
255
255
255
255
255
255
255
255
255
255
255
255
255
255
255
255
254
255
244
176
152
152
159
233
255
252
255
240
184
150
152
162
229
255
253
255
255
255
255
255
255
254
255
254
202
150
153
155
208
255
252
254
255
202
150
153
155
206
255
253
255
255
255
255
255
255
255
255
255
255
255
255
255
255
255
255
255
255
255
255
254
255
244
176
152
152
159
233
255
252
255
240
184
150
152
162
229
255
253
255
255
255
255
255
255
254
255
254
202
150
153
155
208
255
252
254
255
202
150
153
155
206
255
253
255
255
255
255
255
255
255
255
255
255
255
255
255
255
255
255
255
255
255
255
254
255
244
176
152
152
159
233
255
252
255
240
184
150
152
162
229
255
253
255
255
255
255
255
255
254
255
254
202
150
153
155
208
255
252
254
255
202
150
153
155
206
255
253
255
255
255
255
255
255
255
255
255
255
255
255
255
255
255
255
255
255
255
255
254
255
244
176
152
152
159
233
255
252
255
240
184
150
152
162
229
255
253
255
255
255
255
255
255
254
255
254
202
150
153
155
208
255
252
254
255
202
150
153
155
206
255
253
255
255
255
255
255
255
255
255
255
255
255
255
255
255
255
255
255
255
255
255
254
255
244
176
152
152
159
233
255
252
255
240
184
150
152
162
229
255
253
255
255
255
255
255
255
254
255
254
202
150
153
155
208
255
252
255
255
197
150
153
155
206
255
253
255
255
255
255
255
255
255
255
255
255
255
255
255
255
255
255
255
255
255
255
254
255
244
176
152
152
159
233
255
252
255
240
184
150
152
162
229
255
253
255
255
255
255
255
255
254
255
254
202
150
153
155
208
255
252
255
255
191
150
153
155
206
255
253
255
255
255
255
255
255
255
255
255
255
255
255
255
255
255
255
255
255
255
255
254
255
244
176
152
152
159
233
255
252
255
240
184
150
152
162
229
255
253
255
255
255
255
255
255
254
255
254
202
150
153
155
208
255
252
255
255
191
150
153
155
206
255
253
255
255
255
255
255
255
255
255
255
255
255
255
255
255
255
255
255
255
255
255
254
255
244
176
152
152
159
233
255
252
255
240
184
150
152
162
229
255
253
255
255
255
255
255
255
254
255
254
202
150
153
155
208
255
252
255
255
191
150
153
155
206
255
253
255
255
255
255
255
255
255
255
255
255
255
255
255
255
255
255
255
255
255
255
254
255
244
176
152
152
159
233
255
252
255
240
184
150
152
162
229
255
253
255
254
254
254
254
255
254
255
254
202
150
153
155
208
255
252
255
255
191
150
153
155
206
255
253
255
255
255
255
255
255
255
255
255
255
255
255
255
255
255
255
255
255
255
255
254
255
244
176
152
152
159
233
255
252
255
240
184
150
152
162
229
255
252
255
255
255
255
255
255
253
255
254
202
150
153
155
208
255
252
255
255
191
150
153
155
206
255
253
255
255
255
255
255
255
255
255
255
255
255
255
255
255
255
255
255
255
255
255
254
255
244
176
152
152
159
233
255
252
255
240
184
150
152
162
230
255
247
220
196
200
202
202
201
236
255
253
203
150
153
155
208
255
252
255
255
191
150
153
155
206
255
253
255
255
255
255
255
255
255
255
255
255
255
255
255
255
255
255
255
255
255
255
254
255
244
176
152
152
159
233
255
252
255
240
184
150
152
162
229
255
255
214
161
163
150
149
169
239
255
253
202
150
153
155
208
255
252
255
255
191
150
153
155
206
255
253
255
255
255
255
255
255
255
255
255
255
255
255
255
255
255
255
255
255
255
255
254
255
244
176
152
152
159
233
255
252
255
240
184
150
152
162
229
255
254
253
240
199
159
150
201
255
255
254
202
150
153
155
208
255
252
255
255
191
150
153
155
206
255
253
255
255
255
255
255
255
255
255
255
255
255
255
255
255
255
255
255
255
255
255
254
255
244
176
152
152
159
233
255
252
255
240
184
150
152
162
229
255
254
246
197
156
153
150
202
254
255
254
202
150
153
155
208
255
252
255
255
191
150
153
155
206
255
253
255
255
255
255
255
255
255
255
255
255
255
255
255
255
255
255
255
255
255
255
254
255
244
176
152
152
159
233
255
252
255
240
184
150
152
162
229
255
255
234
161
152
154
150
202
254
255
254
202
150
153
155
208
255
252
255
255
191
150
153
155
206
255
253
255
255
255
255
255
255
255
255
255
255
255
255
255
255
255
255
255
255
255
255
254
255
244
176
152
152
159
233
255
252
255
240
184
150
152
162
229
255
255
234
164
152
154
150
202
254
255
254
202
150
153
155
208
255
252
255
255
191
150
153
155
206
255
253
255
255
255
255
255
255
255
255
255
255
255
255
255
255
255
255
255
255
255
255
254
255
244
176
152
152
159
233
255
252
255
240
184
150
152
162
229
255
255
234
164
152
154
150
202
254
255
254
202
150
153
155
208
255
252
255
255
191
150
153
155
206
255
253
255
255
255
255
255
255
255
255
255
255
255
255
255
255
255
255
255
255
255
255
254
255
244
176
152
152
159
233
255
252
255
240
184
150
152
162
229
255
255
234
164
152
154
150
202
254
255
254
202
150
153
155
208
255
252
255
255
191
150
153
155
206
255
253
255
255
255
255
255
255
255
255
255
255
255
255
255
255
255
255
255
255
255
255
254
255
244
176
152
152
159
233
255
252
255
240
184
150
152
162
229
255
255
233
164
152
154
150
203
254
255
254
202
150
153
155
208
255
252
255
255
191
150
153
155
206
255
253
255
255
255
255
255
255
255
255
255
255
255
255
255
255
255
255
255
255
255
255
254
255
244
176
152
152
159
233
255
252
255
240
184
150
152
162
229
255
255
236
161
152
154
151
199
255
255
254
202
150
153
155
208
255
252
255
255
191
150
153
155
206
255
253
255
255
255
255
255
255
255
255
255
255
255
255
255
255
255
255
255
255
255
255
253
253
244
177
153
153
160
233
255
252
255
240
184
150
152
162
229
255
251
210
149
152
152
152
168
233
255
253
202
150
153
155
208
255
252
255
255
191
151
154
156
206
254
252
255
255
255
255
255
255
255
255
255
255
255
255
255
255
255
255
255
255
255
255
255
255
244
173
152
152
156
232
255
252
255
240
184
150
152
162
229
255
247
201
156
162
161
160
165
224
255
253
202
150
154
155
209
255
252
255
255
189
150
152
156
204
255
255
254
254
254
255
255
255
255
255
255
255
255
255
255
255
255
255
255
255
254
255
237
230
251
208
178
175
191
240
253
252
255
239
182
150
152
160
228
255
252
240
236
236
234
236
237
246
255
254
200
150
153
155
207
255
252
254
253
223
181
182
192
236
254
230
242
255
255
255
255
255
255
255
255
255
255
255
255
255
255
255
255
254
253
255
211
158
194
222
235
246
255
255
255
255
254
242
192
150
152
169
234
254
252
255
255
255
255
255
255
255
253
253
209
151
152
160
215
254
252
255
255
255
255
251
245
226
196
166
226
248
249
255
255
255
255
255
255
255
255
255
255
255
255
255
255
255
255
253
214
148
153
156
172
191
211
227
240
249
255
255
244
229
229
240
255
255
255
255
254
254
254
254
254
255
255
255
248
231
229
235
252
255
255
248
239
226
212
192
172
155
151
153
170
176
176
224
254
255
255
255
255
255
255
255
255
255
255
255
255
242
250
255
235
185
157
153
153
153
153
158
171
182
200
207
217
230
239
242
241
245
245
249
252
252
252
252
251
247
245
244
242
242
237
227
216
209
199
181
171
159
152
153
153
153
153
153
153
152
149
190
249
255
254
255
255
255
255
255
255
255
255
254
255
204
195
238
255
251
219
186
162
153
153
153
152
152
150
151
153
155
157
163
171
177
177
183
187
187
187
187
186
180
177
177
168
162
155
154
153
150
150
152
152
153
153
153
153
153
153
153
153
154
151
194
249
255
254
255
255
255
255
255
255
255
255
253
255
191
154
172
204
235
255
255
235
209
187
167
158
153
153
153
153
153
153
153
153
152
152
152
152
152
152
152
152
152
152
152
153
153
153
153
153
153
153
153
153
153
153
153
153
153
153
153
153
154
150
192
249
255
254
255
255
255
255
255
255
255
255
253
255
213
154
151
153
168
195
220
245
255
255
247
229
211
194
181
169
159
156
154
153
153
153
153
153
153
153
153
153
153
153
153
157
158
153
153
153
153
153
153
153
153
153
153
153
153
153
153
153
153
147
203
252
254
255
255
255
255
255
255
255
255
255
254
255
247
209
157
151
152
152
155
167
188
209
227
242
253
255
250
246
241
232
221
214
207
203
195
196
196
196
197
196
198
203
201
196
176
153
153
153
153
153
153
153
153
153
153
153
153
153
153
152
151
194
242
255
254
255
255
255
255
255
255
255
255
255
255
255
255
254
228
190
158
150
152
152
153
153
157
167
175
188
201
212
222
228
232
233
239
241
241
237
232
231
225
217
205
193
177
165
155
153
153
153
153
153
153
153
153
153
153
152
152
150
157
182
223
249
255
254
255
255
255
255
255
255
255
255
255
255
255
255
254
255
255
250
232
208
177
162
150
150
151
153
152
153
153
153
153
155
159
159
164
166
166
163
159
157
153
153
153
153
153
153
153
153
153
153
153
153
152
153
151
150
150
161
176
205
228
249
255
255
254
255
255
255
255
255
255
255
255
255
255
255
255
255
255
255
253
255
255
255
247
229
217
200
180
167
160
153
150
151
150
150
151
153
153
153
153
153
153
153
153
153
153
153
153
153
151
150
150
151
150
153
159
166
180
199
215
228
245
255
255
255
253
254
255
255
255
255
255
255
255
255
255
255
255
255
255
255
255
255
255
254
253
254
255
255
255
254
247
237
222
215
210
199
192
185
179
168
165
165
162
161
161
161
160
160
161
165
165
168
178
184
190
199
209
214
222
236
246
253
255
255
255
254
253
254
255
255
255
255
255
255
255
255
255
255
255
255
255
255
255
255
255
255
255
255
255
255
254
253
253
255
255
255
255
255
255
253
249
245
242
240
236
235
227
225
225
225
225
225
226
235
236
240
243
244
249
253
255
255
255
255
255
255
253
253
254
255
255
255
255
255
255
255
255
255
255
255
255
255
